<?xml version="1.0" encoding="utf-8"?>
<!-- Generator: Adobe Illustrator 18.0.0, SVG Export Plug-In . SVG Version: 6.00 Build 0)  -->
<!DOCTYPE svg PUBLIC "-//W3C//DTD SVG 1.1//EN" "http://www.w3.org/Graphics/SVG/1.1/DTD/svg11.dtd">
<svg version="1.1" xmlns="http://www.w3.org/2000/svg" xmlns:xlink="http://www.w3.org/1999/xlink" x="0px" y="0px"
	 viewBox="0 0 2272 1872" enable-background="new 0 0 2272 1872" xml:space="preserve">
<g id="Background">
	<rect x="-24.8" y="-24.6" fill="#90D0B3" width="2321.3" height="1906.5"/>
</g>
<g id="Object">
	<path fill="#64C299" d="M1872.8,491.6c-3.2,3.5-4.5,8.4-3.5,13c1,4.7,4.1,8.6,8.4,10.6c9.4,4.4,20.1,12.3,17.3,25.2
		c-2,9.1-10.4,17.3-17.7,17.3c-0.8,0-1.5-0.1-2.2-0.3c-7.1-1.9-11.3-5.5-13.4-11.4c-1.7-4.9-1.3-9.7-1.3-10.4
		c0.8-5.1-1.1-10.1-4.9-13.5c-2.7-2.4-6.2-3.6-9.7-3.6c-1.5,0-3.1,0.2-4.6,0.7c-11.5,3.5-31.1,24.2-39.1,32.9
		c-5.1,5.6-12.4,14.1-17.9,22.2c-7.4,11-9.8,18.8-8.1,26.1c2,8.5,9.3,17,40.7,35.8c1.3,0.8,2.5,1.5,3.8,2.2
		c-12.8,9.8-18.1,23.7-18.4,36.6c-0.5,28.1,20.8,54.9,46.4,58.3c2.7,0.4,5.3,0.5,7.8,0.5c13.8,0,24.1-5.1,31.7-12.2
		c0.5,1,0.9,2.1,1.4,3.1c14.6,32.2,23.7,40.3,32.8,42.4c1.1,0.3,2.3,0.4,3.4,0.4c0.1,0,0.3,0,0.4,0c7.8-0.2,22-3.1,54.5-25.3
		c16.7-11.4,30.3-22.6,30.9-23c4.3-3.5,6.3-9.2,5.2-14.6c-1.1-5.5-5.2-9.8-10.5-11.4c-17.6-5.1-26.7-17.2-26.5-26.5
		c0.2-10.6,12.1-15.3,19.2-17.1c3.5-0.9,6.6-1.3,9.4-1.3c5.7,0,8.2,1.9,9.6,3.4c5.4,5.6,6.1,17.4,6,21c-0.3,5.4,2.3,10.5,6.8,13.4
		c2.5,1.6,5.3,2.4,8.1,2.4c2.4,0,4.7-0.6,6.9-1.7c33.2-17.2,55.5-48.4,60.2-64.1c1.8-6,1.4-11.3-1.1-15.8c-0.2-0.4-0.5-0.8-0.8-1.2
		c-10.2-14.6-28.7-29.1-44.9-40c9-7.3,14.8-18.2,16.1-31.6c2.4-25.7-12.3-56.6-38.2-61.6c-2.9-0.6-5.8-0.8-8.7-0.8
		c-13.9,0-24.3,6.4-31.9,15.1c-2-4.1-4-8.1-5.9-11.7c-15.5-29.6-22.9-35.5-31.7-36.3c-0.5,0-0.9-0.1-1.4-0.1c-0.7,0-1.4,0-2.1,0.1
		C1915.6,444.8,1877,486.8,1872.8,491.6z"/>
	<path fill="#64C299" d="M1500.3,684.6c1.3,0.4,2.6,0.5,3.9,0.5c4.1,0,8.1-1.7,11-4.8c8.1-8.7,18-13.7,27.1-13.7
		c3.1,0,8.9,0.7,12.6,5.2c3.7,4.6,4.6,12.2,2.5,21.5c-3.7,16.6-11,16.6-14.9,16.6c-7,0-14.7-3.4-17-4.7c-2.3-1.3-4.9-2-7.5-2
		c-2.6,0-5.2,0.7-7.6,2.1c-4.6,2.7-7.5,7.7-7.4,13.1c0.3,25.6,8.8,47.3,13.8,57.9c14.6,30.8,26.3,30.8,30.1,30.8c0.2,0,0.5,0,0.8,0
		c0.5,0,1-0.1,1.4-0.1c17.7-2.5,38.8-12.5,55.9-22c1,4.4,2.5,8.1,4,10.8c10.2,19.1,33.4,27.6,51.9,27.6c15.8,0,29.5-5.9,37.4-16.2
		c9.8-12.8,11.7-27.6,5.6-42.7c2.5,0,4.9,0.1,7.2,0.1c7.5,0,18.5-0.2,27.9-1.2c11.9-1.3,20.2-3.6,24.7-10.7c0.6-1,1.1-2,1.5-3.1
		c13-38.2-7.2-91.5-9.5-97.5c-1.7-4.4-5.5-7.8-10.1-9c-1.3-0.3-2.6-0.5-3.9-0.5c-3.3,0-6.6,1.1-9.3,3.2c-6.8,5.3-13.4,8.2-19.1,8.2
		c-8.8,0-15-6.7-17.8-12.9c-2.9-6.4-2.7-13.1,0.4-16.6c4.2-4.8,8.6-7,13.7-7c6.3,0,11.6,3.3,12.3,3.7c2.6,1.9,5.5,2.8,8.6,2.8
		c1.9,0,3.8-0.4,5.7-1.1c4.8-1.9,8.1-6.3,9-11.5c2.1-11.8-7.5-38.7-11.8-49.7c-2.7-7.1-7-17.4-11.8-26c-1.2-2.2-2.4-4.1-3.6-5.9
		c24.6,15.6,51.9,21.5,66,21.5c5.9,0,14.3-0.8,19.4-7.6c0.3-0.4,0.6-0.8,0.8-1.2c9.3-15.2,15.1-37.9,18.6-57.1
		c7.6,3.9,15,4.6,19.4,4.6c16.8,0,34.5-9.2,46.4-24.1c9.7-12.2,13.5-25.8,10.7-38.3c-3.6-15.7-13.9-26.6-29.4-31.5
		c3-3.5,5.8-6.9,8.3-10.1c20.9-26.1,23.3-35.2,20.5-43.6c-0.4-1.1-0.9-2.1-1.5-3.1c-21.1-34.4-75.1-52.8-81.2-54.7
		c-1.5-0.5-3.1-0.7-4.6-0.7c-3.1,0-6.1,0.9-8.7,2.8c-3.9,2.7-6.2,7.2-6.3,11.9c-0.4,17-7.6,26.3-20.5,26.3
		c-9.4,0-18.3-5.4-19.2-11.8c-1.1-7.2,0.5-12.6,5.1-16.8c3.8-3.5,8.3-5.1,9-5.3c5-1.3,8.8-5,10.4-9.9c1.6-4.9,0.3-10.3-3.1-14.3
		c-5-5.8-18-12.5-38.6-20.1c-9.3-3.4-32.4-11.2-46.9-11.2c-6.2,0-11.2,1.4-15,4.3c-7,5.2-11.9,15.3-16.5,51.7
		c-0.2,1.5-0.4,2.9-0.5,4.4c-8.7-4.8-16.8-5.9-22.3-5.9c-15.9,0-31.9,8.6-42.9,23.1c-10.8,14.3-14.7,31.7-10.4,46.7
		c4.3,15.2,13.6,26,26.5,31.5c-0.8,0.8-1.5,1.7-2.3,2.5c-23.7,26.3-27.4,37.9-25.7,47.1c0.2,1.3,0.6,2.5,1.2,3.7
		c3.4,7.1,11.7,18.9,45.1,39.8c17.1,10.7,32.8,18.7,33.5,19.1c2.2,1.1,4.5,1.6,6.8,1.6c3,0,6.1-0.9,8.7-2.7
		c4.6-3.2,6.9-8.7,6.2-14.2c-1.6-12,1.1-23.2,7.2-30.1c2.3-2.7,6.2-5.9,11.4-5.9c5.9,0,12.4,4.2,18.4,11.8
		c5.3,6.8,7.4,12.5,6.2,16.9c-2,7.2-12.6,13.3-17.3,15.2c-5,1.9-8.7,6.3-9.5,11.7c-0.5,3.3,0,6.5,1.5,9.3c-0.2-0.1-0.5-0.1-0.7-0.2
		c-1.5-0.4-3.1-0.6-4.8-0.6c-6.8,0-17.2,2.6-47.1,21.7c-0.7,0.4-1.4,0.9-2.1,1.3c-1.4-7.5-4.3-13.4-7.3-17.8
		c-9.3-13.5-26-21.5-44.7-21.5c-19.1,0-36.1,8.1-45.4,21.7c-9.9,14.3-10.8,28.4-7.3,40.5c-5.3-0.3-10.7-0.4-16-0.4
		c-22.6,0-33.8,2.9-40.1,10.5c-0.8,1-1.5,2.1-2.1,3.3c-3.3,7.1-7.2,21-1.9,60.1c2.7,20,6.5,37.2,6.6,38
		C1490.8,678.8,1495,683.1,1500.3,684.6z"/>
	<path fill="#64C299" d="M859.6,775.8l97.8,57.8c2.3,1.4,5,2.1,7.6,2.1c1.3,0,2.6-0.2,3.8-0.5c3.9-1,7.2-3.6,9.2-7l68.3-118.9
		l68.3,118.9c2,3.5,5.3,6,9.2,7c1.3,0.3,2.5,0.5,3.8,0.5c2.7,0,5.3-0.7,7.6-2.1l97.8-57.8c7.1-4.2,9.5-13.3,5.4-20.4L1129.3,565
		l57.5-100c0.6-1.1,1.1-2.3,1.5-3.5l37.7-139.2l14.1-53.1c1.6-6.2-0.8-12.7-6.1-16.3c-2.5-1.7-5.5-2.6-8.4-2.6c-3.2,0-6.3,1-9,3
		l-46,34.2c-0.4,0.3-0.8,0.6-1.2,1l-97.8,89.6c-1.1,1-2.1,2.3-2.9,3.6l-22.4,38.9l-22.4-38.9c-0.8-1.3-1.7-2.6-2.9-3.6l-97.8-89.6
		c-0.4-0.3-0.8-0.7-1.2-1l-46-34.2c-2.7-2-5.8-3-9-3c-2.9,0-5.9,0.9-8.4,2.6c-5.3,3.6-7.7,10.1-6.1,16.3l14.2,53.1l37.7,139.1
		c0.3,1.2,0.8,2.4,1.5,3.5l57.5,100L854.2,755.4C850.1,762.5,852.5,771.6,859.6,775.8z"/>
	<path fill="#64C299" d="M700.8,546.7H576.7V342.4c0-8.3-6.7-15-15-15H259.9c-8.3,0-15,6.7-15,15v204.3H125.5c-8.3,0-15,6.7-15,15
		V781c0,8.3,6.7,15,15,15h575.3c8.3,0,15-6.7,15-15V561.7C715.8,553.4,709.1,546.7,700.8,546.7z"/>
	<path fill="#64C299" d="M635.3,1111.8h-42.7c-8.3,0-15,6.7-15,15v40.7h-22c-1.2-17.3-15.6-30.9-33.2-30.9s-32,13.7-33.2,30.9h-82.2
		c-1.2-17.3-15.6-30.9-33.2-30.9s-32,13.7-33.2,30.9h-82.2c-1.2-17.3-15.6-30.9-33.2-30.9s-32,13.7-33.2,30.9H187v-40.7
		c0-8.3-6.7-15-15-15h-42.7c-8.3,0-15,6.7-15,15v467.4c0,8.3,6.7,15,15,15H172c8.3,0,15-6.7,15-15v-58.9h5.2
		c1.2,17.3,15.6,30.9,33.2,30.9c15.3,0,28.3-10.4,32.1-24.6c3.8,14.2,16.8,24.6,32.1,24.6c17.6,0,32-13.7,33.2-30.9h29.7
		c1.2,17.3,15.6,30.9,33.2,30.9s32-13.7,33.2-30.9h158.7v58.9c0,8.3,6.7,15,15,15h42.7c8.3,0,15-6.7,15-15v-467.4
		C650.3,1118.5,643.6,1111.8,635.3,1111.8z M352.5,1492.8h-29.7c-1.2-17.3-15.6-30.9-33.2-30.9c-15.3,0-28.3,10.4-32.1,24.6
		c-3.8-14.2-16.8-24.6-32.1-24.6c-17.6,0-32,13.7-33.2,30.9H187V1430h69.8c2.7,15.7,16.4,27.7,32.8,27.7s30.1-12,32.8-27.7h82.9
		c2.7,15.7,16.4,27.7,32.8,27.7s30.1-12,32.8-27.7h18.7c2.7,15.7,16.4,27.7,32.8,27.7s30.1-12,32.8-27.7h22.3v62.8H418.9
		c-1.2-17.3-15.6-30.9-33.2-30.9S353.7,1475.6,352.5,1492.8z M258.5,1209.8h82.2c1.2,17.3,15.6,30.9,33.2,30.9s32-13.7,33.2-30.9
		h82.2c1.2,17.3,15.6,30.9,33.2,30.9s32-13.7,33.2-30.9h22v66.1h-88c-1.2-17.3-15.6-30.9-33.2-30.9s-32,13.7-33.2,30.9h-82.2
		c-1.2-17.3-15.6-30.9-33.2-30.9s-32,13.7-33.2,30.9h-16.1c-1.2-17.3-15.6-30.9-33.2-30.9s-32,13.7-33.2,30.9H187v-66.1h5.2
		c1.2,17.3,15.6,30.9,33.2,30.9S257.3,1227.1,258.5,1209.8z M522.4,1353.4c-18.3,0-33.3,14.9-33.3,33.3v0.9h-17.7v-0.9
		c0-18.3-14.9-33.3-33.3-33.3s-33.3,14.9-33.3,33.3v0.9h-82v-0.9c0-18.3-14.9-33.3-33.3-33.3s-33.3,14.9-33.3,33.3v0.9H187v-69.3
		h5.2c1.2,17.3,15.6,30.9,33.2,30.9s32-13.7,33.2-30.9h16.1c1.2,17.3,15.6,30.9,33.2,30.9s32-13.7,33.2-30.9h82.2
		c1.2,17.3,15.6,30.9,33.2,30.9s32-13.7,33.2-30.9h88v69.3h-21.9v-0.9C555.7,1368.4,540.8,1353.4,522.4,1353.4z"/>
	<path fill="#64C299" d="M2175.5,1298h-15.1v-20.4c0-8.3-6.7-15-15-15H2118v-112.3c0-8.3-6.7-15-15-15h-523.4c-8.3,0-15,6.7-15,15
		v112.3c-0.3,0-0.6,0-0.9,0h-28.3c-8.3,0-15,6.7-15,15v20.4H1507c-8.3,0-15,6.7-15,15v28.3c0,8.3,6.7,15,15,15h13.3v308.6
		c0,8.3,6.7,15,15,15h28.3c8.3,0,15-6.7,15-15v-145.9c0.3,0,0.6,0,0.9,0h522.6v145.9c0,8.3,6.7,15,15,15h28.3c8.3,0,15-6.7,15-15
		v-308.6h15.1c8.3,0,15-6.7,15-15V1313C2190.5,1304.7,2183.7,1298,2175.5,1298z"/>
	<path fill="#64C299" d="M1375.4,1188.5h-215.1c-1.2-7-7.4-12.4-14.8-12.4h-35.4c-7.4,0-13.5,5.3-14.8,12.4h-9.1
		c-2.6-2.2-6-3.5-9.7-3.5h-44.2c-3.7,0-7.1,1.3-9.7,3.5H733.4c-8.3,0-15,6.7-15,15v402.8c0,8.3,6.7,15,15,15h289.2
		c2.6,2.2,6,3.5,9.7,3.5h44.2c3.7,0,7.1-1.3,9.7-3.5h289.2c8.3,0,15-6.7,15-15v-402.8C1390.4,1195.2,1383.6,1188.5,1375.4,1188.5z"
		/>
	<path fill="#FFFFFF" d="M1881.8,469.6c-3.2,3.5-4.5,8.4-3.5,13c1,4.7,4.1,8.6,8.4,10.6c9.4,4.4,20.1,12.3,17.3,25.2
		c-2,9.1-10.4,17.3-17.7,17.3c-0.8,0-1.5-0.1-2.2-0.3c-7.1-1.9-11.3-5.5-13.4-11.4c-1.7-4.9-1.3-9.7-1.3-10.4
		c0.8-5.1-1.1-10.1-4.9-13.5c-2.7-2.4-6.2-3.6-9.7-3.6c-1.5,0-3.1,0.2-4.6,0.7c-11.5,3.5-31.1,24.2-39.1,32.9
		c-5.1,5.6-12.4,14.1-17.9,22.2c-7.4,11-9.8,18.8-8.1,26.1c2,8.5,9.3,17,40.7,35.8c1.3,0.8,2.5,1.5,3.8,2.2
		c-12.8,9.8-18.1,23.7-18.4,36.6c-0.5,28.1,20.8,54.9,46.4,58.3c2.7,0.4,5.3,0.5,7.8,0.5c13.8,0,24.1-5.1,31.7-12.2
		c0.5,1,0.9,2.1,1.4,3.1c14.6,32.2,23.7,40.3,32.8,42.4c1.1,0.3,2.3,0.4,3.4,0.4c0.1,0,0.3,0,0.4,0c7.8-0.2,22-3.1,54.5-25.3
		c16.7-11.4,30.3-22.6,30.9-23c4.3-3.5,6.3-9.2,5.2-14.6c-1.1-5.5-5.2-9.8-10.5-11.4c-17.6-5.1-26.7-17.2-26.5-26.5
		c0.2-10.6,12.1-15.3,19.2-17.1c3.5-0.9,6.6-1.3,9.4-1.3c5.7,0,8.2,1.9,9.6,3.4c5.4,5.6,6.1,17.4,6,21c-0.3,5.4,2.3,10.5,6.8,13.4
		c2.5,1.6,5.3,2.4,8.1,2.4c2.4,0,4.7-0.6,6.9-1.7c33.2-17.2,55.5-48.4,60.2-64.1c1.8-6,1.4-11.3-1.1-15.8c-0.2-0.4-0.5-0.8-0.8-1.2
		c-10.2-14.6-28.7-29.1-44.9-40c9-7.3,14.8-18.2,16.1-31.6c2.4-25.7-12.3-56.6-38.2-61.6c-2.9-0.6-5.8-0.8-8.7-0.8
		c-13.9,0-24.3,6.4-31.9,15.1c-2-4.1-4-8.1-5.9-11.7c-15.5-29.6-22.9-35.5-31.7-36.3c-0.5,0-0.9-0.1-1.4-0.1c-0.7,0-1.4,0-2.1,0.1
		C1924.6,422.8,1886,464.8,1881.8,469.6z"/>
	<path fill="#FFFFFF" d="M1509.3,662.6c1.3,0.4,2.6,0.5,3.9,0.5c4.1,0,8.1-1.7,11-4.8c8.1-8.7,18-13.7,27.1-13.7
		c3.1,0,8.9,0.7,12.6,5.2c3.7,4.6,4.6,12.2,2.5,21.5c-3.7,16.6-11,16.6-14.9,16.6c-7,0-14.7-3.4-17-4.7c-2.3-1.3-4.9-2-7.5-2
		c-2.6,0-5.2,0.7-7.6,2.1c-4.6,2.7-7.5,7.7-7.4,13.1c0.3,25.6,8.8,47.3,13.8,57.9c14.6,30.8,26.3,30.8,30.1,30.8c0.2,0,0.5,0,0.8,0
		c0.5,0,1-0.1,1.4-0.1c17.7-2.5,38.8-12.5,55.9-22c1,4.4,2.5,8.1,4,10.8c10.2,19.1,33.4,27.6,51.9,27.6c15.8,0,29.5-5.9,37.4-16.2
		c9.8-12.8,11.7-27.6,5.6-42.7c2.5,0,4.9,0.1,7.2,0.1c7.5,0,18.5-0.2,27.9-1.2c11.9-1.3,20.2-3.6,24.7-10.7c0.6-1,1.1-2,1.5-3.1
		c13-38.2-7.2-91.5-9.5-97.5c-1.7-4.4-5.5-7.8-10.1-9c-1.3-0.3-2.6-0.5-3.9-0.5c-3.3,0-6.6,1.1-9.3,3.2c-6.8,5.3-13.4,8.2-19.1,8.2
		c-8.8,0-15-6.7-17.8-12.9c-2.9-6.4-2.7-13.1,0.4-16.6c4.2-4.8,8.6-7,13.7-7c6.3,0,11.6,3.3,12.3,3.7c2.6,1.9,5.5,2.8,8.6,2.8
		c1.9,0,3.8-0.4,5.7-1.1c4.8-1.9,8.1-6.3,9-11.5c2.1-11.8-7.5-38.7-11.8-49.7c-2.7-7.1-7-17.4-11.8-26c-1.2-2.2-2.4-4.1-3.6-5.9
		c24.6,15.6,51.9,21.5,66,21.5c5.9,0,14.3-0.8,19.4-7.6c0.3-0.4,0.6-0.8,0.8-1.2c9.3-15.2,15.1-37.9,18.6-57.1
		c7.6,3.9,15,4.6,19.4,4.6c16.8,0,34.5-9.2,46.4-24.1c9.7-12.2,13.5-25.8,10.7-38.3c-3.6-15.7-13.9-26.6-29.4-31.5
		c3-3.5,5.8-6.9,8.3-10.1c20.9-26.1,23.3-35.2,20.5-43.6c-0.4-1.1-0.9-2.1-1.5-3.1c-21.1-34.4-75.1-52.8-81.2-54.7
		c-1.5-0.5-3.1-0.7-4.6-0.7c-3.1,0-6.1,0.9-8.7,2.8c-3.9,2.7-6.2,7.2-6.3,11.9c-0.4,17-7.6,26.3-20.5,26.3
		c-9.4,0-18.3-5.4-19.2-11.8c-1.1-7.2,0.5-12.6,5.1-16.8c3.8-3.5,8.3-5.1,9-5.3c5-1.3,8.8-5,10.4-9.9c1.6-4.9,0.3-10.3-3.1-14.3
		c-5-5.8-18-12.5-38.6-20.1c-9.3-3.4-32.4-11.2-46.9-11.2c-6.2,0-11.2,1.4-15,4.3c-7,5.2-11.9,15.3-16.5,51.7
		c-0.2,1.5-0.4,2.9-0.5,4.4c-8.7-4.8-16.8-5.9-22.3-5.9c-15.9,0-31.9,8.6-42.9,23.1c-10.8,14.3-14.7,31.7-10.4,46.7
		c4.3,15.2,13.6,26,26.5,31.5c-0.8,0.8-1.5,1.7-2.3,2.5c-23.7,26.3-27.4,37.9-25.7,47.1c0.2,1.3,0.6,2.5,1.2,3.7
		c3.4,7.1,11.7,18.9,45.1,39.8c17.1,10.7,32.8,18.7,33.5,19.1c2.2,1.1,4.5,1.6,6.8,1.6c3,0,6.1-0.9,8.7-2.7
		c4.6-3.2,6.9-8.7,6.2-14.2c-1.6-12,1.1-23.2,7.2-30.1c2.3-2.7,6.2-5.9,11.4-5.9c5.9,0,12.4,4.2,18.4,11.8
		c5.3,6.8,7.4,12.5,6.2,16.9c-2,7.2-12.6,13.3-17.3,15.2c-5,1.9-8.7,6.3-9.5,11.7c-0.5,3.3,0,6.5,1.5,9.3c-0.2-0.1-0.5-0.1-0.7-0.2
		c-1.5-0.4-3.1-0.6-4.8-0.6c-6.8,0-17.2,2.6-47.1,21.7c-0.7,0.4-1.4,0.9-2.1,1.3c-1.4-7.5-4.3-13.4-7.3-17.8
		c-9.3-13.5-26-21.5-44.7-21.5c-19.1,0-36.1,8.1-45.4,21.7c-9.9,14.3-10.8,28.4-7.3,40.5c-5.3-0.3-10.7-0.4-16-0.4
		c-22.6,0-33.8,2.9-40.1,10.5c-0.8,1-1.5,2.1-2.1,3.3c-3.3,7.1-7.2,21-1.9,60.1c2.7,20,6.5,37.2,6.6,38
		C1499.8,656.8,1504,661.1,1509.3,662.6z"/>
	<path fill="#FFFFFF" d="M868.6,753.8l97.8,57.8c2.3,1.4,5,2.1,7.6,2.1c1.3,0,2.6-0.2,3.8-0.5c3.9-1,7.2-3.6,9.2-7l68.3-118.9
		l68.3,118.9c2,3.5,5.3,6,9.2,7c1.3,0.3,2.5,0.5,3.8,0.5c2.7,0,5.3-0.7,7.6-2.1l97.8-57.8c7.1-4.2,9.5-13.3,5.4-20.4L1138.3,543
		l57.5-100c0.6-1.1,1.1-2.3,1.5-3.5l37.7-139.2l14.1-53.1c1.6-6.2-0.8-12.7-6.1-16.3c-2.5-1.7-5.5-2.6-8.4-2.6c-3.2,0-6.3,1-9,3
		l-46,34.2c-0.4,0.3-0.8,0.6-1.2,1l-97.8,89.6c-1.1,1-2.1,2.3-2.9,3.6l-22.4,38.9l-22.4-38.9c-0.8-1.3-1.7-2.6-2.9-3.6l-97.8-89.6
		c-0.4-0.3-0.8-0.7-1.2-1l-46-34.2c-2.7-2-5.8-3-9-3c-2.9,0-5.9,0.9-8.4,2.6c-5.3,3.6-7.7,10.1-6.1,16.3l14.2,53.1l37.7,139.1
		c0.3,1.2,0.8,2.4,1.5,3.5l57.5,100L863.2,733.4C859.1,740.5,861.5,749.6,868.6,753.8z"/>
	<path fill="#FFFFFF" d="M709.8,524.7H585.7V320.4c0-8.3-6.7-15-15-15H268.9c-8.3,0-15,6.7-15,15v204.3H134.5c-8.3,0-15,6.7-15,15
		V759c0,8.3,6.7,15,15,15h575.3c8.3,0,15-6.7,15-15V539.7C724.8,531.4,718.1,524.7,709.8,524.7z"/>
	<path fill="#FFFFFF" d="M644.3,1089.8h-42.7c-8.3,0-15,6.7-15,15v40.7h-22c-1.2-17.3-15.6-30.9-33.2-30.9s-32,13.7-33.2,30.9h-82.2
		c-1.2-17.3-15.6-30.9-33.2-30.9s-32,13.7-33.2,30.9h-82.2c-1.2-17.3-15.6-30.9-33.2-30.9s-32,13.7-33.2,30.9H196v-40.7
		c0-8.3-6.7-15-15-15h-42.7c-8.3,0-15,6.7-15,15v467.4c0,8.3,6.7,15,15,15H181c8.3,0,15-6.7,15-15v-58.9h5.2
		c1.2,17.3,15.6,30.9,33.2,30.9c15.3,0,28.3-10.4,32.1-24.6c3.8,14.2,16.8,24.6,32.1,24.6c17.6,0,32-13.7,33.2-30.9h29.7
		c1.2,17.3,15.6,30.9,33.2,30.9s32-13.7,33.2-30.9h158.7v58.9c0,8.3,6.7,15,15,15h42.7c8.3,0,15-6.7,15-15v-467.4
		C659.3,1096.5,652.6,1089.8,644.3,1089.8z M361.5,1470.8h-29.7c-1.2-17.3-15.6-30.9-33.2-30.9c-15.3,0-28.3,10.4-32.1,24.6
		c-3.8-14.2-16.8-24.6-32.1-24.6c-17.6,0-32,13.7-33.2,30.9H196V1408h69.8c2.7,15.7,16.4,27.7,32.8,27.7s30.1-12,32.8-27.7h82.9
		c2.7,15.7,16.4,27.7,32.8,27.7s30.1-12,32.8-27.7h18.7c2.7,15.7,16.4,27.7,32.8,27.7s30.1-12,32.8-27.7h22.3v62.8H427.9
		c-1.2-17.3-15.6-30.9-33.2-30.9S362.7,1453.6,361.5,1470.8z M267.5,1187.8h82.2c1.2,17.3,15.6,30.9,33.2,30.9s32-13.7,33.2-30.9
		h82.2c1.2,17.3,15.6,30.9,33.2,30.9s32-13.7,33.2-30.9h22v66.1h-88c-1.2-17.3-15.6-30.9-33.2-30.9s-32,13.7-33.2,30.9h-82.2
		c-1.2-17.3-15.6-30.9-33.2-30.9s-32,13.7-33.2,30.9h-16.1c-1.2-17.3-15.6-30.9-33.2-30.9s-32,13.7-33.2,30.9H196v-66.1h5.2
		c1.2,17.3,15.6,30.9,33.2,30.9S266.3,1205.1,267.5,1187.8z M531.4,1331.4c-18.3,0-33.3,14.9-33.3,33.3v0.9h-17.7v-0.9
		c0-18.3-14.9-33.3-33.3-33.3s-33.3,14.9-33.3,33.3v0.9h-82v-0.9c0-18.3-14.9-33.3-33.3-33.3s-33.3,14.9-33.3,33.3v0.9H196v-69.3
		h5.2c1.2,17.3,15.6,30.9,33.2,30.9s32-13.7,33.2-30.9h16.1c1.2,17.3,15.6,30.9,33.2,30.9s32-13.7,33.2-30.9h82.2
		c1.2,17.3,15.6,30.9,33.2,30.9s32-13.7,33.2-30.9h88v69.3h-21.9v-0.9C564.7,1346.4,549.8,1331.4,531.4,1331.4z"/>
	<path fill="#FFFFFF" d="M2184.5,1276h-15.1v-20.4c0-8.3-6.7-15-15-15H2127v-112.3c0-8.3-6.7-15-15-15h-523.4c-8.3,0-15,6.7-15,15
		v112.3c-0.3,0-0.6,0-0.9,0h-28.3c-8.3,0-15,6.7-15,15v20.4H1516c-8.3,0-15,6.7-15,15v28.3c0,8.3,6.7,15,15,15h13.3v308.6
		c0,8.3,6.7,15,15,15h28.3c8.3,0,15-6.7,15-15v-145.9c0.3,0,0.6,0,0.9,0h522.6v145.9c0,8.3,6.7,15,15,15h28.3c8.3,0,15-6.7,15-15
		v-308.6h15.1c8.3,0,15-6.7,15-15V1291C2199.5,1282.7,2192.7,1276,2184.5,1276z"/>
	<path fill="#FFFFFF" d="M1384.4,1166.5h-215.1c-1.2-7-7.4-12.4-14.8-12.4h-35.4c-7.4,0-13.5,5.3-14.8,12.4h-9.1
		c-2.6-2.2-6-3.5-9.7-3.5h-44.2c-3.7,0-7.1,1.3-9.7,3.5H742.4c-8.3,0-15,6.7-15,15v402.8c0,8.3,6.7,15,15,15h289.2
		c2.6,2.2,6,3.5,9.7,3.5h44.2c3.7,0,7.1-1.3,9.7-3.5h289.2c8.3,0,15-6.7,15-15v-402.8C1399.4,1173.2,1392.6,1166.5,1384.4,1166.5z"
		/>
	<g>
		<path fill="#00B6BE" d="M1899.2,665.1c0,0-5.6,36.2-39.6,31.6c-34-4.6-56.4-71.1,5.6-77.4c0,0-62.9-32.7-65.6-44.2
			s44.5-60.3,54.9-63.5c0,0-4.3,30.3,25.7,38.3c30,8,64.2-46.5,12.8-70.3c0,0,38-42.6,73.6-47.5c7.4,0.7,32.7,51.7,37.8,69.4
			c0,0,8-41.8,38.9-35.8c30.9,5.9,43.6,79.7-12.7,73.1c0,0,52.1,28,70.3,54c2.9,5.1-18,41-53,59.2c0,0,2.7-50.3-43.6-38.4
			c-46.4,11.8-36.6,59.9,6.8,72.5c0,0-54.2,44.4-76.4,45C1921.9,727.8,1899.2,665.1,1899.2,665.1z"/>
		<path fill="#72BF44" d="M1582.2,557.6c0,0-29.8-21.3-10.3-49.6c19.4-28.3,88.8-18.3,66.5,39.8c0,0,57.5-41.4,69-38.6
			s33.8,66.9,32,77.6c0,0-25.1-17.5-45.7,5.7s12.6,78.3,57,43.1c0,0,20.9,53.1,9.3,87.1c-4,6.3-60.9,5.9-79,2.5
			c0,0,33.7,26,14.5,50.9c-19.2,24.9-90.8,3-59.5-44.3c0,0-48.5,33.9-79.9,38.4c-5.9,0.3-28.5-34.5-28.9-73.9c0,0,43.7,25.1,54-21.6
			c10.3-46.7-37-59.6-67.8-26.6c0,0-15.2-68.4-5.8-88.4C1516,549.6,1582.2,557.6,1582.2,557.6z"/>
		<path fill="#AA55A1" d="M1653,357c0,0-35.4,9.4-44.8-23.6c-9.4-33,42.4-80.2,73.1-25.9c0,0,4.7-70.7,14.1-77.8
			c9.4-7.1,73.1,16.5,80.2,24.8c0,0-29.5,8.2-24.8,38.9c4.7,30.7,68.4,40.1,69.6-16.5c0,0,54.2,17.7,73.1,48.3
			c2.4,7.1-34.2,50.7-48.3,62.5c0,0,41.5-9.4,48.4,21.2s-55.5,71.9-72,17.7c0,0-4.7,58.9-21.2,86.1c-3.5,4.7-44.8,0-75.4-24.8
			c0,0,47.2-17.7,17.7-55.4s-69.6-9.4-63.7,35.4c0,0-62.4-31.8-71.9-51.9C1604.7,403,1653,357,1653,357z"/>
	</g>
	<g>
		<g>
			<path fill="#ED1C24" d="M1090.7,367.2L876.2,740.9l97.8,57.8l208.7-363.1l14.1-79c0,0-36.5-18.9-41.3-20
				c-4.7-1.2-35.4,13-35.4,13L1090.7,367.2z"/>
			<path fill="#E11B22" d="M1184.9,350.4c0,0-0.1,0-0.1-0.1c-1.2-0.6-2.4-1.2-3.7-1.9c-0.5-0.3-1-0.5-1.5-0.8
				c-0.9-0.4-1.8-0.9-2.6-1.3c-0.5-0.2-1-0.5-1.5-0.7c-1-0.5-2-1-2.9-1.5c-0.4-0.2-0.9-0.4-1.3-0.6c-1.3-0.6-2.5-1.2-3.7-1.8
				c-0.3-0.1-0.6-0.3-0.9-0.4c-1-0.5-2.1-1-3-1.4c-0.4-0.2-0.7-0.3-1-0.5c-0.7-0.3-1.5-0.7-2.1-1c-0.4-0.2-0.7-0.3-1-0.5
				c-0.6-0.3-1.1-0.5-1.6-0.7c-0.2-0.1-0.5-0.2-0.7-0.3c-0.6-0.2-1.2-0.4-1.5-0.5c0,0,0,0,0,0c-0.4-0.1-1-0.1-1.6,0l0,0L909.7,760.7
				l10.7,6.3l20.7,12.2L1184.9,350.4z"/>
			<polygon fill="#E11B22" points="1234.6,243.4 1188.6,277.6 1220.4,296.4 			"/>
			<polygon fill="#FFF8D2" points="1188.6,277.6 1090.7,367.2 1120.2,349.5 1112.5,380.4 1142.5,364.9 1137.6,396.9 1162.7,380.1 
				1158.4,414.2 1186.9,399.2 1182.7,435.5 1220.4,296.4 			"/>
		</g>
		<g>
			<path fill="#FFC40C" d="M1020,367.2l214.6,373.7l-97.8,57.8L928.1,435.5l-14.1-79c0,0,36.5-18.9,41.3-20c4.7-1.2,35.4,13,35.4,13
				L1020,367.2z"/>
			<path fill="#FCB116" d="M925.9,350.4c0,0,0.1,0,0.1-0.1c1.2-0.6,2.4-1.2,3.7-1.9c0.5-0.3,1-0.5,1.5-0.8c0.9-0.4,1.8-0.9,2.6-1.3
				c0.5-0.2,1-0.5,1.5-0.7c1-0.5,2-1,2.9-1.5c0.4-0.2,0.9-0.4,1.3-0.6c1.3-0.6,2.5-1.2,3.7-1.8c0.3-0.1,0.6-0.3,0.9-0.4
				c1-0.5,2.1-1,3-1.4c0.4-0.2,0.7-0.3,1-0.5c0.7-0.3,1.5-0.7,2.1-1c0.4-0.2,0.7-0.3,1-0.5c0.6-0.3,1.1-0.5,1.6-0.7
				c0.2-0.1,0.5-0.2,0.7-0.3c0.6-0.2,1.2-0.4,1.5-0.5c0,0,0,0,0,0c0.4-0.1,1-0.1,1.6,0l0,0l244.3,424.1l-10.7,6.3l-20.7,12.2
				L925.9,350.4z"/>
			<polygon fill="#FCB116" points="876.2,243.4 922.2,277.6 890.3,296.4 			"/>
			<polygon fill="#FFF8D2" points="922.2,277.6 1020,367.2 990.5,349.5 998.3,380.4 968.3,364.9 973.2,396.9 948.1,380.1 
				952.4,414.2 923.9,399.2 928.1,435.5 890.3,296.4 			"/>
		</g>
	</g>
	<g>
		<rect x="492.9" y="539.7" fill="#FFC40C" width="216.9" height="219.3"/>
		<rect x="408" y="539.7" fill="#FCB116" width="84.9" height="219.3"/>
		<rect x="353.8" y="320.4" fill="#ED1C24" width="216.9" height="219.3"/>
		<rect x="268.9" y="320.4" fill="#E11B22" width="84.9" height="219.3"/>
		<rect x="219.4" y="539.7" fill="#72BF44" width="216.9" height="219.3"/>
		<rect x="134.5" y="539.7" fill="#67AE3E" width="84.9" height="219.3"/>
		<path fill="#FFF8D2" d="M436.9,490.6c-14.4-36.8,0-75.3,0-113.8c0-6.5,9.7-21.2,20.9-15.9c6.5,2.9,12.9,9.4,11.2,17.6
			c-6.2,32-7.9,60.9-6.2,92.9c1.5,7.9,11.2,11.2,6.2,19.1c-4.7,5-7.9,9.7-15.9,9.7C446.6,500.3,440.1,497.1,436.9,490.6z"/>
		<path fill="#FFF8D2" d="M284.4,685.2c13.5-24.4,37.9-37.9,56.7-60.3c1.8-3.5-3.5-7.1-5-8.5c-7-3.5-15.6-0.3-22.6-3.5
			c-15.3-7.1-16.2,10.3-31.5,1.8c-7.1-5.3-7.1-15.6-5.3-24.1c5-15.3,22.6-8.8,31.7-8.8c15.6,0,32.9,0,48.2,8.8
			c8.8,5,25.3,11.8,20.6,25.9c-7.6,23.8-27.7,41.2-48.2,56.7c-1.8,1.8-8.5,8.5-1.8,8.5c34.7,5.3,24.4,0,59.1,8.8
			c1.7,0,6.8,3.2,6.8,6.8c1.8,8.8-5,17.4-12.1,19.1c-44.7,5-45,0-90-7.1C279.1,707.5,280.6,692,284.4,685.2z"/>
		<path fill="#FFF8D2" d="M559.1,707c-10.3-5.9-2.9-19.4,5.9-22.1c14.7-4.7,30.9,7.4,45.6,1.5c1.5,0,7.6-2.9,5.9-4.4
			c-8.8-23.5-61.7-19.1-50-47c5.9-10.3,22.1-13.2,32.3-20.6c-10.3-5.9-22.1,0-30.9-5.9c-10.3-8.8-1.5-25,11.8-25
			c16.2,1.5,33.8,1.8,47.4,10.3c23.2,15-7.4,33.8-19.4,47c2.9,1.5,4.4,5.9,7.4,7.4c15,2.9,28.5,11.5,32.6,25
			c4.7,15.9-10.3,27.9-25,35.3C602.9,718.2,578.2,717.3,559.1,707z"/>
	</g>
	<g>
		<rect x="149.5" y="1160.5" fill="#00B6BE" width="466.8" height="12.4"/>
		<rect x="149.5" y="1268.9" fill="#00B6BE" width="466.8" height="12.4"/>
		<rect x="152.7" y="1380.6" fill="#00B6BE" width="466.8" height="12.4"/>
		<rect x="152.7" y="1485.8" fill="#00B6BE" width="466.8" height="12.4"/>
		<rect x="138.3" y="1104.8" fill="#00B6BE" width="42.7" height="467.4"/>
		<rect x="601.6" y="1104.8" fill="#00B6BE" width="42.7" height="467.4"/>
		<path fill="#FFC40C" d="M234.4,1129.5c-10.1,0-18.3,8.2-18.3,18.3v37.7c0,10.1,8.2,18.3,18.3,18.3c10.1,0,18.3-8.2,18.3-18.3
			v-37.7C252.6,1137.7,244.4,1129.5,234.4,1129.5z"/>
		<path fill="#FFC40C" d="M382.9,1129.5c-10.1,0-18.3,8.2-18.3,18.3v37.7c0,10.1,8.2,18.3,18.3,18.3s18.3-8.2,18.3-18.3v-37.7
			C401.2,1137.7,393,1129.5,382.9,1129.5z"/>
		<path fill="#FFC40C" d="M531.4,1129.5c-10.1,0-18.3,8.2-18.3,18.3v37.7c0,10.1,8.2,18.3,18.3,18.3c10.1,0,18.3-8.2,18.3-18.3
			v-37.7C549.7,1137.7,541.5,1129.5,531.4,1129.5z"/>
		<path fill="#ED1C24" d="M234.4,1238c-10.1,0-18.3,8.2-18.3,18.3v37.7c0,10.1,8.2,18.3,18.3,18.3c10.1,0,18.3-8.2,18.3-18.3v-37.7
			C252.6,1246.2,244.4,1238,234.4,1238z"/>
		<path fill="#ED1C24" d="M316.9,1238c-10.1,0-18.3,8.2-18.3,18.3v37.7c0,10.1,8.2,18.3,18.3,18.3s18.3-8.2,18.3-18.3v-37.7
			C335.1,1246.2,327,1238,316.9,1238z"/>
		<path fill="#ED1C24" d="M465.4,1238c-10.1,0-18.3,8.2-18.3,18.3v37.7c0,10.1,8.2,18.3,18.3,18.3s18.3-8.2,18.3-18.3v-37.7
			C483.7,1246.2,475.5,1238,465.4,1238z"/>
		<path fill="#72BF44" d="M298.6,1346.4c-10.1,0-18.3,8.2-18.3,18.3v37.7c0,10.1,8.2,18.3,18.3,18.3s18.3-8.2,18.3-18.3v-37.7
			C316.9,1354.6,308.7,1346.4,298.6,1346.4z"/>
		<path fill="#72BF44" d="M447.1,1346.4c-10.1,0-18.3,8.2-18.3,18.3v37.7c0,10.1,8.2,18.3,18.3,18.3s18.3-8.2,18.3-18.3v-37.7
			C465.4,1354.6,457.2,1346.4,447.1,1346.4z"/>
		<path fill="#72BF44" d="M531.4,1346.4c-10.1,0-18.3,8.2-18.3,18.3v37.7c0,10.1,8.2,18.3,18.3,18.3c10.1,0,18.3-8.2,18.3-18.3
			v-37.7C549.7,1354.6,541.5,1346.4,531.4,1346.4z"/>
		<path fill="#AA55A1" d="M234.4,1454.9c-10.1,0-18.3,8.2-18.3,18.3v37.7c0,10.1,8.2,18.3,18.3,18.3c10.1,0,18.3-8.2,18.3-18.3
			v-37.7C252.6,1463.1,244.4,1454.9,234.4,1454.9z"/>
		<path fill="#AA55A1" d="M298.6,1454.9c-10.1,0-18.3,8.2-18.3,18.3v37.7c0,10.1,8.2,18.3,18.3,18.3s18.3-8.2,18.3-18.3v-37.7
			C316.9,1463.1,308.7,1454.9,298.6,1454.9z"/>
		<path fill="#AA55A1" d="M394.7,1454.9c-10.1,0-18.3,8.2-18.3,18.3v37.7c0,10.1,8.2,18.3,18.3,18.3s18.3-8.2,18.3-18.3v-37.7
			C413,1463.1,404.8,1454.9,394.7,1454.9z"/>
	</g>
	<g>
		<rect x="1516" y="1291" fill="#67AE3E" width="668.4" height="28.3"/>
		<rect x="2126.1" y="1255.6" fill="#72BF44" width="28.3" height="387.3"/>
		<rect x="1544.3" y="1255.6" fill="#72BF44" width="28.3" height="387.3"/>
		<rect x="1588.5" y="1128.3" fill="#72BF44" width="523.4" height="353.7"/>
		<rect x="1612.7" y="1152.4" fill="#FFF8D2" width="475.1" height="305.3"/>
		<path fill="#ED1C24" d="M1726.6,1380c-17-43.2,0-88.5,0-133.9c0-7.6,11.4-24.9,24.6-18.7c7.6,3.5,15.2,11.1,13.2,20.8
			c-7.3,37.7-9.3,71.6-7.3,109.3c1.7,9.3,13.2,13.2,7.3,22.5c-5.5,5.9-9.3,11.4-18.7,11.4C1738,1391.4,1730.4,1387.6,1726.6,1380z"
			/>
		<path fill="#ED1C24" d="M1836.2,1241.5c4.8-3.8,11.1-4.8,19-4.8c6.3,1,11.1,6.2,11.1,9.7c3.1,11.4-1.7,24.9,4.8,33.6
			c4.5,6.2,19-1,27,3.8c3.1,2.4,4.5,7.6,3.1,11.1c-6.6,6.2-15.9,7.6-25.3,8.6c-1.7,1.4-6.6,2.8-6.6,5.2c0,12.4,5.2,24.9,1.7,37
			c-1.4,5.2-12.8,6.2-17.3,1.4c-12.8-8.6-8.3-24.6-15.9-34.6c-6.6-8.6-23.9,1-38-1.4c-9.3-2.4-6.6-11.4,0-13.5
			c11.1-4.2,23.9-7.6,36.3-9c3.1-1,1.7-3.5,1.7-6.2C1837.9,1267.4,1823.8,1254,1836.2,1241.5z"/>
		<path fill="#ED1C24" d="M1942,1380c-17-43.2,0-88.5,0-133.9c0-7.6,11.4-24.9,24.6-18.7c7.6,3.5,15.2,11.1,13.2,20.8
			c-7.3,37.7-9.3,71.6-7.3,109.3c1.7,9.3,13.2,13.2,7.3,22.5c-5.5,5.9-9.3,11.4-18.7,11.4C1953.4,1391.4,1945.8,1387.6,1942,1380z"
			/>
	</g>
	<g>
		<g>
			<rect x="742.4" y="1181.5" fill="#AA55A1" width="641.9" height="402.8"/>
			<rect x="1041.3" y="1177.9" fill="#9B4C93" width="44.2" height="409.9"/>
			<rect x="1067.8" y="1206.2" fill="#FFF6BF" width="284.7" height="355.4"/>
			<rect x="777.8" y="1206.2" fill="#FFF8D2" width="290" height="355.4"/>
			<polygon fill="#ED1C24" points="1154.4,1308.8 1136.8,1330 1119.1,1308.8 1119.1,1169.1 1154.4,1169.1 			"/>
		</g>
		<path fill="#FFC40C" d="M921.1,1297.7c2.5-3.9,16-7.6,18.8-1.4c14.9,31.8,20.3,66.1,29.3,101.5c0,3.7,6.2,3.7,8.7,7.6
			c1.4,2.5,1.4,6.2,0,7.6c-8.7,18.8,9,34.3,6.5,52c-1.1,7.6-16,11-21.7,3.7c-9.5-12.9-2.5-33.7-16.3-41.9
			c-10.4-5.9-26.7-3.9-36.8,3.9c-12.9,9.8-3.9,53.1-32.9,39.4c-3.9-17.7,6.2-34.3,10.1-52c5.1-22.8,11.2-47,18.8-69.7
			C911.8,1330.3,911,1311.4,921.1,1297.7z M915.7,1403.9c6.8,3.7,24.2,5.1,26.7-3.7c5.1-17.7-5.1-35.4-12.7-52
			c-6.2,7.6-7.6,16.6-8.7,25.3C919.4,1385.1,908.4,1400,915.7,1403.9z"/>
		<path fill="#FFC40C" d="M1183,1315.9c-2.5-2.2-8.4,0-11-3.7c-5.9-9.6,4.8-19.1,9.6-19.1c16.9,0,36-2.3,50.3,5.9
			c13.2,7.6,30.1,7.3,39.6,20.5c1.1,2.3,2.2,5.9,1.1,8.4c-11.8,9.6-21.7,20.2-36,28.7c-1.1,0-7,3.7-3.4,4.8
			c19.1,3.7,38.2,13.2,43,29.8c5.1,18-6.5,32.9-19.1,45.5c-17.4,17.4-37.1,34.9-61,36c-4.8,0.3-13.2-3.7-9.8-10.7
			c2.5-4.8,9.8-9.6,9.8-12.1c2.3-21.6-2.5-43-6.2-64.7c-1.1-7-8.4-15.5-2.2-23.9c2.2-2.5,1.1-9.6,0-14.3
			C1185,1336.5,1192.6,1321.8,1183,1315.9z M1212.8,1343.5c12.1,1.1,22.8-7.3,25.3-15.5c2.3-4.8-9.5-6.5-15.7-9.6
			c-7-3.9-9.6,4.8-10.7,10.7C1210.8,1333.9,1213.9,1338.7,1212.8,1343.5z M1223.8,1439.4c12.9-11,30.9-21.6,27.3-39.6
			c-2.2-11.8-26.1-23.9-34.6-14.3c-3.7,5.9,1.1,16.9,2.2,26.4C1220.1,1421.4,1220.1,1430.9,1223.8,1439.4z"/>
	</g>
</g>
</svg>
